<?xml version="1.0" encoding="utf-8"?>
<!-- Generator: Adobe Illustrator 22.0.0, SVG Export Plug-In . SVG Version: 6.00 Build 0)  -->
<svg version="1.1" id="Layer_1" xmlns="http://www.w3.org/2000/svg" xmlns:xlink="http://www.w3.org/1999/xlink" x="0px" y="0px"
	 viewBox="0 0 612 792" style="enable-background:new 0 0 612 792;" xml:space="preserve">
<style type="text/css">
	.st0{fill:#00A79D;}
	.st1{fill:#FFFFFF;}
</style>
<g>
	<path class="st0" d="M458.2,393.6h-284c-6.6,0-12-5.4-12-12v-284c0-6.6,5.4-12,12-12h284c6.6,0,12,5.4,12,12v284
		C470.2,388.2,464.8,393.6,458.2,393.6z"/>
	<g>
		<path class="st1" d="M327.4,332.6c6.3,0,12.4-0.1,18.4,0c10.8,0.3,19.7,9.3,18.9,19.5c-32.4,0-64.8,0-97.5,0
			c-0.5-4.7,1.2-8.7,4.1-12.2c4-4.9,9.2-7.4,15.6-7.4c5.9,0,11.8,0,17.9,0c0-55.7,0-111,0-166.5c-25.4,0-50.6,0-76.4,0
			c1.9,3,3.6,5.8,5.3,8.5c8.8,13.9,17.5,27.8,26.3,41.8c2.5,4,1.4,8.1-2.4,9.2c-3.3,0.9-5.4-0.6-7.1-3.3
			c-8.3-13.3-16.7-26.5-25-39.7c-0.7-1.2-1.5-2.3-2.5-3.9c-2.5,3.9-4.8,7.5-7.1,11.1c-6.9,10.9-13.8,21.8-20.6,32.8
			c-1.5,2.4-3.6,4-6.2,2.9c-1.7-0.7-3.7-2.5-4.2-4.2c-0.5-1.5,0.5-3.8,1.4-5.3c9.6-15.5,19.4-31,29.1-46.4c0.7-1.1,1.3-2.1,2.1-3.4
			c-1.1-0.4-2.1-0.6-3-1c-3.9-1.5-6-4.9-5.6-9.2c0.3-3.9,3.2-7.2,7.3-7.4c10.3-0.3,20.6-0.3,30.8-0.3c10.5,0,21,0.1,31.6,0
			c1.4,0,2.9-0.9,4.1-1.8c3.9-2.7,7.7-5.5,11.5-8.4c1.1-0.8,2.3-1.9,2.6-3.1c2.4-9.5,10.1-15.7,19.5-15.7c9.1,0,16.8,6.4,19.2,15.7
			c0.3,1.2,1.5,2.3,2.5,3.1c3.7,2.8,7.4,5.5,11.3,8.1c1.4,0.9,3.1,2,4.6,2c18.3,0.1,36.6,0.1,54.9,0.1c1.8,0,3.7,0,5.5,0.1
			c5.2,0.4,8.4,3.1,8.9,7.3c0.6,5-1.8,8.4-7.2,10c-0.3,0.1-0.6,0.2-1.3,0.4c2.1,3.5,4.2,6.8,6.3,10.2c8.3,13.2,16.7,26.5,25.1,39.7
			c1.8,2.8,2.5,5.5,0,8.1c-2.7,2.9-6.8,2.1-9.4-2c-7.5-11.9-15-23.8-22.5-35.6c-1.6-2.5-3.2-5-5-7.9c-2.1,3.3-4.1,6.3-6,9.4
			c-7.1,11.3-14.2,22.7-21.5,33.9c-1.1,1.7-3.3,3.2-5.3,3.6c-1.4,0.3-4.1-1.1-4.7-2.4c-0.8-1.8-0.8-4.6,0.2-6.3
			c6-10.1,12.4-20,18.7-29.9c4.3-6.8,8.6-13.7,13.2-20.9c-25.7,0-50.9,0-76.4,0C327.4,221.4,327.4,276.8,327.4,332.6z"/>
		<path class="st1" d="M409.2,231.8c12.7,0,25.4,0,38.1,0c5.6,0,6.4,0.9,6,6.3c-1.5,21.4-19.3,39.2-40.7,40.8
			c-21.7,1.6-41.7-13-46.4-34.1c-0.5-2.4-0.9-4.9-1.1-7.4c-0.5-4.4,0.6-5.6,5-5.6C383.1,231.8,396.1,231.8,409.2,231.8z"/>
		<path class="st1" d="M223.1,231.8c13,0,26.1,0,39.1,0c4.2,0,5.3,1.2,5,5.4c-1.5,23-20.2,41.4-42.6,41.9
			c-23.6,0.5-42.8-16.2-45.6-39.7c-0.1-0.9-0.1-1.8-0.1-2.7c-0.1-3.9,0.9-4.9,4.8-4.9C196.8,231.7,210,231.8,223.1,231.8z"/>
	</g>
	<g>
		<path class="st0" d="M223.5,246.9v6.6h6.3v1.7h-6.3v6.6h-1.8v-6.6h-6.3v-1.7h6.3v-6.6H223.5z"/>
		<path class="st0" d="M223.9,262.2h-2.5v-6.6H215v-2.4h6.3v-6.6h2.5v6.6h6.3v2.4h-6.3V262.2z M222.1,261.5h1v-6.6h6.3v-0.9h-6.3
			v-6.6h-1v6.6h-6.3v0.9h6.3V261.5z"/>
	</g>
	<g>
		<rect x="403.4" y="250.7" class="st0" width="11.5" height="5"/>
	</g>
</g>
</svg>
